<mxfile host="65bd71144e" pages="2">
    <diagram id="b6Ekjlsdi5f3sAHTuSAY" name="第 1 页">
        <mxGraphModel dx="1112" dy="555" grid="1" gridSize="10" guides="1" tooltips="1" connect="1" arrows="1" fold="1" page="1" pageScale="1" pageWidth="1169" pageHeight="827" math="0" shadow="0">
            <root>
                <mxCell id="0"/>
                <mxCell id="1" parent="0"/>
                <mxCell id="gqKcWpabHvohUeHwU1mR-7" style="edgeStyle=none;curved=1;rounded=0;orthogonalLoop=1;jettySize=auto;html=1;exitX=1;exitY=0.5;exitDx=0;exitDy=0;entryX=0;entryY=0.5;entryDx=0;entryDy=0;endArrow=classicThin;startSize=14;endSize=8;sourcePerimeterSpacing=8;targetPerimeterSpacing=8;endFill=1;fillColor=#fff2cc;strokeColor=#d6b656;" parent="1" source="gqKcWpabHvohUeHwU1mR-1" target="gqKcWpabHvohUeHwU1mR-2" edge="1">
                    <mxGeometry relative="1" as="geometry"/>
                </mxCell>
                <mxCell id="gqKcWpabHvohUeHwU1mR-8" value="输入信号&lt;br&gt;r(t)" style="edgeLabel;html=1;align=center;verticalAlign=middle;resizable=0;points=[];" parent="gqKcWpabHvohUeHwU1mR-7" vertex="1" connectable="0">
                    <mxGeometry x="0.2971" y="-2" relative="1" as="geometry">
                        <mxPoint x="-13" y="-22" as="offset"/>
                    </mxGeometry>
                </mxCell>
                <mxCell id="gqKcWpabHvohUeHwU1mR-1" value="给定装置" style="rounded=0;whiteSpace=wrap;html=1;hachureGap=4;pointerEvents=0;" parent="1" vertex="1">
                    <mxGeometry x="180" y="305" width="100" height="30" as="geometry"/>
                </mxCell>
                <mxCell id="gqKcWpabHvohUeHwU1mR-9" style="edgeStyle=none;curved=1;rounded=0;orthogonalLoop=1;jettySize=auto;html=1;exitX=1;exitY=0.5;exitDx=0;exitDy=0;entryX=0;entryY=0.5;entryDx=0;entryDy=0;endArrow=classicThin;endFill=1;startSize=14;endSize=8;sourcePerimeterSpacing=8;targetPerimeterSpacing=8;fillColor=#dae8fc;strokeColor=#6c8ebf;" parent="1" source="gqKcWpabHvohUeHwU1mR-2" target="gqKcWpabHvohUeHwU1mR-3" edge="1">
                    <mxGeometry relative="1" as="geometry"/>
                </mxCell>
                <mxCell id="gqKcWpabHvohUeHwU1mR-10" value="偏差信号&lt;br&gt;e(t)" style="edgeLabel;html=1;align=center;verticalAlign=middle;resizable=0;points=[];" parent="gqKcWpabHvohUeHwU1mR-9" vertex="1" connectable="0">
                    <mxGeometry x="0.3381" relative="1" as="geometry">
                        <mxPoint x="-10" y="-20" as="offset"/>
                    </mxGeometry>
                </mxCell>
                <mxCell id="gqKcWpabHvohUeHwU1mR-2" value="" style="ellipse;whiteSpace=wrap;html=1;aspect=fixed;hachureGap=4;pointerEvents=0;" parent="1" vertex="1">
                    <mxGeometry x="340" y="305" width="30" height="30" as="geometry"/>
                </mxCell>
                <mxCell id="gqKcWpabHvohUeHwU1mR-12" style="edgeStyle=orthogonalEdgeStyle;rounded=0;orthogonalLoop=1;jettySize=auto;html=1;exitX=1;exitY=0.5;exitDx=0;exitDy=0;entryX=0;entryY=0.5;entryDx=0;entryDy=0;endArrow=classicThin;endFill=1;startSize=14;endSize=8;sourcePerimeterSpacing=8;targetPerimeterSpacing=8;fillColor=#dae8fc;strokeColor=#6c8ebf;" parent="1" source="gqKcWpabHvohUeHwU1mR-3" target="gqKcWpabHvohUeHwU1mR-4" edge="1">
                    <mxGeometry relative="1" as="geometry"/>
                </mxCell>
                <mxCell id="gqKcWpabHvohUeHwU1mR-13" value="控制量" style="edgeLabel;html=1;align=center;verticalAlign=middle;resizable=0;points=[];" parent="gqKcWpabHvohUeHwU1mR-12" vertex="1" connectable="0">
                    <mxGeometry x="0.2005" y="1" relative="1" as="geometry">
                        <mxPoint x="-3" y="-14" as="offset"/>
                    </mxGeometry>
                </mxCell>
                <mxCell id="gqKcWpabHvohUeHwU1mR-3" value="控制器" style="rounded=0;whiteSpace=wrap;html=1;hachureGap=4;pointerEvents=0;" parent="1" vertex="1">
                    <mxGeometry x="430" y="305" width="100" height="30" as="geometry"/>
                </mxCell>
                <mxCell id="gqKcWpabHvohUeHwU1mR-14" style="edgeStyle=orthogonalEdgeStyle;rounded=0;orthogonalLoop=1;jettySize=auto;html=1;exitX=1;exitY=0.5;exitDx=0;exitDy=0;entryX=0;entryY=0.5;entryDx=0;entryDy=0;endArrow=classicThin;endFill=1;startSize=14;endSize=8;sourcePerimeterSpacing=8;targetPerimeterSpacing=8;fillColor=#ffe6cc;strokeColor=#d79b00;" parent="1" source="gqKcWpabHvohUeHwU1mR-4" target="gqKcWpabHvohUeHwU1mR-5" edge="1">
                    <mxGeometry relative="1" as="geometry"/>
                </mxCell>
                <mxCell id="gqKcWpabHvohUeHwU1mR-15" value="输出信号（被控量）" style="edgeLabel;html=1;align=center;verticalAlign=middle;resizable=0;points=[];" parent="gqKcWpabHvohUeHwU1mR-14" vertex="1" connectable="0">
                    <mxGeometry x="0.3739" relative="1" as="geometry">
                        <mxPoint x="-21" y="-15" as="offset"/>
                    </mxGeometry>
                </mxCell>
                <mxCell id="gqKcWpabHvohUeHwU1mR-22" style="edgeStyle=orthogonalEdgeStyle;rounded=0;orthogonalLoop=1;jettySize=auto;html=1;exitX=1;exitY=0.5;exitDx=0;exitDy=0;entryX=1;entryY=0.5;entryDx=0;entryDy=0;endArrow=classicThin;endFill=1;startSize=14;endSize=8;sourcePerimeterSpacing=8;targetPerimeterSpacing=8;fillColor=#ffe6cc;strokeColor=#d79b00;" parent="1" source="gqKcWpabHvohUeHwU1mR-4" target="gqKcWpabHvohUeHwU1mR-6" edge="1">
                    <mxGeometry relative="1" as="geometry">
                        <Array as="points">
                            <mxPoint x="750" y="320"/>
                            <mxPoint x="750" y="429"/>
                        </Array>
                    </mxGeometry>
                </mxCell>
                <mxCell id="gqKcWpabHvohUeHwU1mR-4" value="被控对象" style="rounded=0;whiteSpace=wrap;html=1;hachureGap=4;pointerEvents=0;" parent="1" vertex="1">
                    <mxGeometry x="584.5" y="305" width="100" height="30" as="geometry"/>
                </mxCell>
                <mxCell id="gqKcWpabHvohUeHwU1mR-16" style="edgeStyle=orthogonalEdgeStyle;rounded=0;orthogonalLoop=1;jettySize=auto;html=1;exitX=1;exitY=0.5;exitDx=0;exitDy=0;endArrow=classicThin;endFill=1;startSize=14;endSize=8;sourcePerimeterSpacing=8;targetPerimeterSpacing=8;fillColor=#f8cecc;strokeColor=#b85450;" parent="1" source="gqKcWpabHvohUeHwU1mR-5" edge="1">
                    <mxGeometry relative="1" as="geometry">
                        <mxPoint x="910" y="320.1428571428571" as="targetPoint"/>
                    </mxGeometry>
                </mxCell>
                <mxCell id="gqKcWpabHvohUeHwU1mR-17" value="误差信号" style="edgeLabel;html=1;align=center;verticalAlign=middle;resizable=0;points=[];" parent="gqKcWpabHvohUeHwU1mR-16" vertex="1" connectable="0">
                    <mxGeometry x="-0.2536" y="-2" relative="1" as="geometry">
                        <mxPoint x="74" y="-2" as="offset"/>
                    </mxGeometry>
                </mxCell>
                <mxCell id="gqKcWpabHvohUeHwU1mR-5" value="" style="ellipse;whiteSpace=wrap;html=1;aspect=fixed;hachureGap=4;pointerEvents=0;" parent="1" vertex="1">
                    <mxGeometry x="810" y="305" width="30" height="30" as="geometry"/>
                </mxCell>
                <mxCell id="gqKcWpabHvohUeHwU1mR-11" style="edgeStyle=orthogonalEdgeStyle;rounded=0;orthogonalLoop=1;jettySize=auto;html=1;exitX=0;exitY=0.5;exitDx=0;exitDy=0;entryX=0.5;entryY=1;entryDx=0;entryDy=0;endArrow=classicThin;endFill=1;startSize=14;endSize=8;sourcePerimeterSpacing=8;targetPerimeterSpacing=8;fillColor=#d5e8d4;strokeColor=#82b366;" parent="1" source="gqKcWpabHvohUeHwU1mR-6" target="gqKcWpabHvohUeHwU1mR-2" edge="1">
                    <mxGeometry relative="1" as="geometry"/>
                </mxCell>
                <mxCell id="gqKcWpabHvohUeHwU1mR-23" value="主反馈信号" style="edgeLabel;html=1;align=center;verticalAlign=middle;resizable=0;points=[];" parent="gqKcWpabHvohUeHwU1mR-11" vertex="1" connectable="0">
                    <mxGeometry x="0.0866" y="-1" relative="1" as="geometry">
                        <mxPoint x="35" y="1" as="offset"/>
                    </mxGeometry>
                </mxCell>
                <mxCell id="gqKcWpabHvohUeHwU1mR-6" value="反馈装置" style="rounded=0;whiteSpace=wrap;html=1;hachureGap=4;pointerEvents=0;" parent="1" vertex="1">
                    <mxGeometry x="510" y="414" width="100" height="30" as="geometry"/>
                </mxCell>
                <mxCell id="gqKcWpabHvohUeHwU1mR-18" value="" style="endArrow=classic;html=1;startSize=14;endSize=8;sourcePerimeterSpacing=8;targetPerimeterSpacing=8;entryX=0.5;entryY=0;entryDx=0;entryDy=0;fillColor=#d5e8d4;strokeColor=#82b366;" parent="1" target="gqKcWpabHvohUeHwU1mR-5" edge="1">
                    <mxGeometry width="50" height="50" relative="1" as="geometry">
                        <mxPoint x="825" y="260" as="sourcePoint"/>
                        <mxPoint x="810" y="360" as="targetPoint"/>
                    </mxGeometry>
                </mxCell>
                <mxCell id="gqKcWpabHvohUeHwU1mR-19" value="期望值" style="edgeLabel;html=1;align=center;verticalAlign=middle;resizable=0;points=[];" parent="gqKcWpabHvohUeHwU1mR-18" vertex="1" connectable="0">
                    <mxGeometry x="-0.7651" relative="1" as="geometry">
                        <mxPoint y="-15" as="offset"/>
                    </mxGeometry>
                </mxCell>
                <mxCell id="gqKcWpabHvohUeHwU1mR-20" value="" style="endArrow=classic;html=1;startSize=14;endSize=8;sourcePerimeterSpacing=8;targetPerimeterSpacing=8;entryX=0.5;entryY=0;entryDx=0;entryDy=0;fillColor=#f8cecc;strokeColor=#b85450;" parent="1" target="gqKcWpabHvohUeHwU1mR-4" edge="1">
                    <mxGeometry width="50" height="50" relative="1" as="geometry">
                        <mxPoint x="635" y="270" as="sourcePoint"/>
                        <mxPoint x="650" y="300" as="targetPoint"/>
                    </mxGeometry>
                </mxCell>
                <mxCell id="gqKcWpabHvohUeHwU1mR-21" value="扰动值" style="edgeLabel;html=1;align=center;verticalAlign=middle;resizable=0;points=[];" parent="gqKcWpabHvohUeHwU1mR-20" vertex="1" connectable="0">
                    <mxGeometry x="-0.6805" y="-1" relative="1" as="geometry">
                        <mxPoint x="1" y="-16" as="offset"/>
                    </mxGeometry>
                </mxCell>
            </root>
        </mxGraphModel>
    </diagram>
</mxfile>